<svg width="147" height="26" viewBox="0 0 147 26" fill="none" xmlns="http://www.w3.org/2000/svg">
<path d="M144.956 20.892C146.827 22.7873 145.485 26 142.821 26L16.0432 26C15.3676 26 14.7117 25.7719 14.1819 25.3528L1.89651 15.6336C0.403117 14.4521 0.374063 12.1963 1.83653 10.9768L14.1654 0.695957C14.7047 0.246281 15.3846 -4.76837e-07 16.0867 -4.76837e-07L143.078 -4.76837e-07C145.704 -4.76837e-07 147.063 3.13486 145.268 5.05111L139.473 11.2363C138.371 12.4123 138.395 14.2487 139.528 15.3953L144.956 20.892Z" fill="url(#paint0_linear_347_4)"/>
<defs>
<linearGradient id="paint0_linear_347_4" x1="150" y1="13" x2="-1" y2="13" gradientUnits="userSpaceOnUse">
<stop stop-color="#473322"/>
<stop offset="1" stop-color="#8D6542"/>
</linearGradient>
</defs>
</svg>
