<svg width="412" height="99" viewBox="0 0 412 99" fill="none" xmlns="http://www.w3.org/2000/svg">
<rect y="37" width="412" height="62" fill="black"/>
<path d="M88 10C88 4.47715 92.4772 0 98 0H314C319.523 0 324 4.47715 324 10V99H88V10Z" fill="#8D6542"/>
<path d="M116 38C116 32.4772 120.477 28 126 28H141C146.523 28 151 32.4772 151 38V99H116V38Z" fill="black"/>
<path d="M260 38C260 32.4772 264.477 28 270 28H285C290.523 28 295 32.4772 295 38V99H260V38Z" fill="black"/>
<path d="M188 38C188 32.4772 192.477 28 198 28H213C218.523 28 223 32.4772 223 38V99H188V38Z" fill="black"/>
</svg>
