<svg width="88" height="240" viewBox="0 0 88 240" fill="none" xmlns="http://www.w3.org/2000/svg">
<path d="M9.34852 34.7845L17.5845 105.556L11.9158 34.5705L17.2357 33.7175L23.3045 87.2552L18.7617 33.7589L27.886 32.506L39.1362 133.576L30.5563 32.5786L42.1798 151.616L32.8452 32.6408L50.3709 224.731C50.9824 231.434 46.0303 237.358 39.3249 237.945C32.637 238.53 26.7411 233.583 26.156 226.895L9.34852 34.7845Z" fill="url(#paint0_linear_40_400)"/>
<path d="M69.7214 92.5L76.7829 33.1982L59.782 227.52C59.314 232.869 54.5989 236.825 49.2504 236.357C43.9265 235.892 39.977 231.216 40.4081 225.889L56.2223 30.475L50.7214 126.5L61.2214 30.4751L72.7214 33.1982L69.7214 92.5Z" fill="url(#paint1_linear_40_400)"/>
<path d="M64.2212 229.823C64.2212 235.07 55.043 239.323 43.7212 239.323C32.3994 239.323 23.2212 235.07 23.2212 229.823C23.2212 224.576 32.3994 232.323 43.7212 232.323C55.043 232.323 64.2212 224.576 64.2212 229.823Z" fill="#1B7C7B"/>
<path d="M0.12187 34.6614C0.0545632 34.1132 0.444378 33.6143 0.992546 33.547L4.45474 33.1219C5.00291 33.0546 5.50185 33.4444 5.56916 33.9926L29.5416 229.232C29.7263 230.737 28.6566 232.106 27.1524 232.291C25.6482 232.475 24.279 231.406 24.0943 229.901L0.12187 34.6614Z" fill="#1B7C7B"/>
<path d="M81.528 34.9926C81.5953 34.4444 82.0943 34.0546 82.6424 34.1219L86.1046 34.547C86.6528 34.6143 87.0426 35.1133 86.9753 35.6614L63.0029 230.901C62.8182 232.406 61.449 233.475 59.9448 233.291C58.4406 233.106 57.3709 231.737 57.5556 230.232L81.528 34.9926Z" fill="#1B7C7B"/>
<g filter="url(#filter0_f_40_400)">
<path d="M36.4137 7.71344L43.9598 14.5118L50.4862 6.7294L46.3524 16.0069L55.7707 19.809L45.6699 18.7445L44.9643 28.8767L42.8554 18.9413L33.001 21.4013L41.7985 16.3254L36.4137 7.71344Z" fill="#EEE600"/>
</g>
<defs>
<filter id="filter0_f_40_400" x="29.001" y="2.7294" width="30.7695" height="30.1473" filterUnits="userSpaceOnUse" color-interpolation-filters="sRGB">
<feFlood flood-opacity="0" result="BackgroundImageFix"/>
<feBlend mode="normal" in="SourceGraphic" in2="BackgroundImageFix" result="shape"/>
<feGaussianBlur stdDeviation="2" result="effect1_foregroundBlur_40_400"/>
</filter>
<linearGradient id="paint0_linear_40_400" x1="21.4235" y1="33.0714" x2="39.3474" y2="237.943" gradientUnits="userSpaceOnUse">
<stop stop-color="white"/>
<stop offset="0.675" stop-color="#878787"/>
</linearGradient>
<linearGradient id="paint1_linear_40_400" x1="66.5807" y1="30.944" x2="48.6142" y2="236.302" gradientUnits="userSpaceOnUse">
<stop stop-color="white"/>
<stop offset="0.675" stop-color="#878787"/>
</linearGradient>
</defs>
</svg>
