<svg width="28" height="77" viewBox="0 0 28 77" fill="none" xmlns="http://www.w3.org/2000/svg">
<path d="M2.9032 12.8026L5.46092 34.781L3.70047 12.7361L5.35262 12.4712L7.2373 29.0977L5.8265 12.4841L8.66011 12.095L12.1539 43.4829L9.48941 12.1175L13.0991 49.0852L10.2002 12.1369L15.6429 71.7916C15.8328 73.8733 14.2949 75.713 12.2125 75.8952C10.1356 76.0769 8.30457 74.5405 8.12286 72.4636L2.9032 12.8026Z" fill="url(#paint0_linear_100_143)"/>
<path d="M21.6523 30.7264L23.8454 12.3099L18.5656 72.6578C18.4203 74.3188 16.956 75.5475 15.295 75.4021C13.6416 75.2575 12.4151 73.8054 12.5489 72.1511L17.4601 11.4642L15.7518 41.2853L19.0126 11.4643L22.584 12.3099L21.6523 30.7264Z" fill="url(#paint1_linear_100_143)"/>
<path d="M19.9442 73.3728C19.9442 75.0022 17.0939 76.3231 13.5778 76.3231C10.0618 76.3231 7.21143 75.0022 7.21143 73.3728C7.21143 71.7434 10.0618 74.1492 13.5778 74.1492C17.0939 74.1492 19.9442 71.7434 19.9442 73.3728Z" fill="#1B7C7B"/>
<path d="M0.103857 13.3019C0.0464983 12.8348 0.378697 12.4096 0.845843 12.3522C1.31299 12.2948 1.73818 12.627 1.79554 13.0942L9.1743 73.1894C9.23166 73.6565 8.89946 74.0817 8.43232 74.1391C7.96517 74.1964 7.53998 73.8642 7.48262 73.3971L0.103857 13.3019Z" fill="#1B7C7B"/>
<path d="M25.2528 13.4047C25.3102 12.9375 25.7354 12.6053 26.2025 12.6627C26.6697 12.7201 27.0019 13.1452 26.9445 13.6124L19.5658 73.7076C19.5084 74.1747 19.0832 74.5069 18.6161 74.4496C18.1489 74.3922 17.8167 73.967 17.8741 73.4999L25.2528 13.4047Z" fill="#1B7C7B"/>
<g filter="url(#filter0_f_100_143)">
<path d="M11.3084 4.39544L13.6519 6.50671L15.6787 4.08984L14.3949 6.97102L17.3198 8.15179L14.1829 7.82119L13.9638 10.9678L13.3089 7.88231L10.2486 8.64626L12.9807 7.06992L11.3084 4.39544Z" fill="#EEE600"/>
</g>
<defs>
<filter id="filter0_f_100_143" x="6.24854" y="0.0898438" width="15.0713" height="14.8779" filterUnits="userSpaceOnUse" color-interpolation-filters="sRGB">
<feFlood flood-opacity="0" result="BackgroundImageFix"/>
<feBlend mode="normal" in="SourceGraphic" in2="BackgroundImageFix" result="shape"/>
<feGaussianBlur stdDeviation="2" result="effect1_foregroundBlur_100_143"/>
</filter>
<linearGradient id="paint0_linear_100_143" x1="6.65315" y1="12.2706" x2="12.2195" y2="75.8946" gradientUnits="userSpaceOnUse">
<stop stop-color="white"/>
<stop offset="0.675" stop-color="#878787"/>
</linearGradient>
<linearGradient id="paint1_linear_100_143" x1="20.677" y1="11.6099" x2="15.0974" y2="75.3849" gradientUnits="userSpaceOnUse">
<stop stop-color="white"/>
<stop offset="0.675" stop-color="#878787"/>
</linearGradient>
</defs>
</svg>
